<svg width="16" height="14" viewBox="0 0 16 14" fill="none" xmlns="http://www.w3.org/2000/svg">
<path d="M10 12H14V2H10V12ZM8 1.007C8 0.45 8.453 0 8.997 0H15.003C15.553 0 16 0.45 16 1.007V12.993C16 13.549 15.547 14 15.003 14H8.997C8.447 14 8 13.55 8 12.993V1.007Z" fill="black"/>
<path d="M5 0H1C0.447715 0 0 0.447715 0 1C0 1.55228 0.447715 2 1 2H5C5.55228 2 6 1.55228 6 1C6 0.447715 5.55228 0 5 0Z" fill="black"/>
<path d="M5 4H1C0.447715 4 0 4.44772 0 5C0 5.55228 0.447715 6 1 6H5C5.55228 6 6 5.55228 6 5C6 4.44772 5.55228 4 5 4Z" fill="black"/>
<path d="M5 8H1C0.447715 8 0 8.44772 0 9C0 9.55228 0.447715 10 1 10H5C5.55228 10 6 9.55228 6 9C6 8.44772 5.55228 8 5 8Z" fill="black"/>
<path d="M5 12H1C0.447715 12 0 12.4477 0 13C0 13.5523 0.447715 14 1 14H5C5.55228 14 6 13.5523 6 13C6 12.4477 5.55228 12 5 12Z" fill="black"/>
</svg>
