<svg width="18" height="16" viewBox="0 0 18 16" fill="none" xmlns="http://www.w3.org/2000/svg">
<path d="M5 2.003V4.998C5 5.26322 5.10536 5.51757 5.2929 5.70511C5.48043 5.89264 5.73479 5.998 6 5.998C6.26522 5.998 6.51957 5.89264 6.70711 5.70511C6.89465 5.51757 7 5.26322 7 4.998V1.102C7 0.494 6.507 0 5.9 0H2C1.73439 0 1.47965 0.105515 1.29184 0.293333C1.10402 0.48115 0.998505 0.735886 0.998505 1.0015C0.998505 1.26711 1.10402 1.52185 1.29184 1.70967C1.47965 1.89748 1.73439 2.003 2 2.003H5Z" fill="black"/>
<path d="M6.428 14.018C4.351 12.989 3 10.807 3 8.37002C3 6.10402 4.167 4.05102 6.02 2.94502C6.5 2.65902 6.666 2.02302 6.391 1.52402C6.32915 1.40679 6.24414 1.30334 6.14113 1.21993C6.03811 1.13653 5.91923 1.07492 5.79169 1.03882C5.66415 1.00273 5.53061 0.992914 5.39917 1.00997C5.26772 1.02702 5.14111 1.07058 5.027 1.13802C2.557 2.61102 1 5.35002 1 8.37002C1 11.618 2.802 14.528 5.57 15.899C6.068 16.146 6.665 15.925 6.902 15.406C7.139 14.886 6.927 14.265 6.428 14.018Z" fill="black"/>
<path fill-rule="evenodd" clip-rule="evenodd" d="M11 11.002V14.898C11 15.506 11.493 16 12.1 16H16C16.2656 16 16.5204 15.8945 16.7082 15.7067C16.896 15.5189 17.0015 15.2641 17.0015 14.9985C17.0015 14.7329 16.896 14.4782 16.7082 14.2903C16.5204 14.1025 16.2656 13.997 16 13.997H13V11.002C13 10.7368 12.8946 10.4824 12.7071 10.2949C12.5196 10.1074 12.2652 10.002 12 10.002C11.7348 10.002 11.4804 10.1074 11.2929 10.2949C11.1054 10.4824 11 10.7368 11 11.002V11.002Z" fill="black"/>
<path fill-rule="evenodd" clip-rule="evenodd" d="M11.097 0.596C10.86 1.116 11.072 1.736 11.571 1.983C13.648 3.012 14.999 5.193 14.999 7.63C14.999 9.896 13.832 11.95 11.978 13.055C11.7456 13.1988 11.5776 13.4265 11.5087 13.6909C11.4398 13.9553 11.4754 14.2361 11.608 14.475C11.882 14.975 12.493 15.148 12.972 14.862C15.442 13.389 16.999 10.65 16.999 7.63C16.999 4.382 15.197 1.472 12.429 0.102C12.2965 0.0353716 12.1503 0.000452613 12.002 0C11.8098 0.00187952 11.6223 0.0590923 11.4618 0.164792C11.3013 0.270491 11.1746 0.420199 11.097 0.596V0.596Z" fill="black"/>
</svg>
