<svg width="14" height="18" viewBox="0 0 14 18" fill="none" xmlns="http://www.w3.org/2000/svg">
<path fill-rule="evenodd" clip-rule="evenodd" d="M14 8C14 9.3 13.2 10.4 12 10.8V12C12 14.2 10.2 16 8 16H5.8C5.4 17.2 4.3 18 3 18C1.3 18 0 16.7 0 15C0 13.7 0.8 12.6 2 12.2V5.8C0.9 5.4 0 4.3 0 3C0 1.3 1.3 0 3 0C4.7 0 6 1.3 6 3C6 4.3 5.2 5.4 3.9 5.8V12.2C4.8 12.5 5.5 13.1 5.8 14H8C9.1 14 10 13.1 10 12V10.8C8.8 10.4 8 9.3 8 8C8 6.3 9.3 5 11 5C12.7 5 14 6.3 14 8ZM3 2C2.5 2 2 2.4 2 3C2 3.6 2.4 4 3 4C3.6 4 4 3.6 4 3C4 2.4 3.6 2 3 2ZM11 9C11.6 9 12 8.6 12 8C12 7.4 11.6 7 11 7C10.4 7 10 7.4 10 8C10 8.6 10.4 9 11 9ZM3 16C3.6 16 4 15.6 4 15C4 14.4 3.6 14 3 14C2.4 14 2 14.4 2 15C2 15.6 2.4 16 3 16Z" fill="#42526E"/>
</svg>
