<svg width="14" height="18" viewBox="0 0 14 18" fill="none" xmlns="http://www.w3.org/2000/svg">
<path fill-rule="evenodd" clip-rule="evenodd" d="M12 7.005V16H2V2H7.99V4.49C7.99 4.88782 8.14803 5.26936 8.42934 5.55066C8.71064 5.83196 9.09218 5.99 9.49 5.99H13.99V5.468C13.99 5.171 13.858 4.89 13.631 4.7L8.557 0.464C8.197 0.164 7.744 0 7.275 0H2C1.46957 0 0.960859 0.210714 0.585786 0.585786C0.210714 0.960859 0 1.46957 0 2V16C0 16.5304 0.210714 17.0391 0.585786 17.4142C0.960859 17.7893 1.46957 18 2 18H12C12.5304 18 13.0391 17.7893 13.4142 17.4142C13.7893 17.0391 14 16.5304 14 16V7.005H12Z" fill="#42526E"/>
<path d="M10 9H4C3.44772 9 3 9.44772 3 10C3 10.5523 3.44772 11 4 11H10C10.5523 11 11 10.5523 11 10C11 9.44772 10.5523 9 10 9Z" fill="#42526E"/>
<path d="M6 12H4C3.44772 12 3 12.4477 3 13C3 13.5523 3.44772 14 4 14H6C6.55228 14 7 13.5523 7 13C7 12.4477 6.55228 12 6 12Z" fill="#42526E"/>
</svg>
