<svg width="26" height="23" viewBox="0 0 26 23" fill="none" xmlns="http://www.w3.org/2000/svg">
<path d="M1.78581 4.28472e-06C1.55424 -0.00298239 1.3332 0.0965821 1.18199 0.271989C1.03077 0.447397 0.964863 0.680692 1.00194 0.909293L4.32946 21.1096C4.37036 21.3554 4.49666 21.5788 4.68612 21.7406C4.87681 21.9055 5.11993 21.9972 5.37201 21.9993L11.5489 14.5996H10.6827L9.32271 7.39581H24.3887L25.4469 0.917132C25.4862 0.689358 25.423 0.455854 25.2741 0.279034C25.1252 0.102215 24.9059 0.000106925 24.6748 4.28472e-06H1.78581Z" fill="white"/>
<path d="M24.3887 7.39581H17.0321L15.7975 14.5996H10.7023L4.68613 21.7445C4.87681 21.9094 5.11993 22.0011 5.37201 22.0032H21.3394C21.7278 22.0082 22.0612 21.7281 22.1233 21.3448L24.3887 7.39581Z" fill="url(#paint0_linear)"/>
<defs>
<linearGradient id="paint0_linear" x1="27" y1="7" x2="17.8345" y2="21.0976" gradientUnits="userSpaceOnUse">
<stop offset="0.3125" stop-opacity="0"/>
<stop offset="1" stop-color="#FBF8F8"/>
</linearGradient>
</defs>
</svg>
