<svg width="32" height="32" viewBox="0 0 32 32" fill="none" xmlns="http://www.w3.org/2000/svg">
<path d="M15.967 29.3616C17.2196 28.1098 17.9233 26.4115 17.9233 24.6406C17.9233 22.8697 17.2196 21.1714 15.967 19.9195L7.26806 11.2489L3.31143 15.2055C2.89743 15.6201 2.89743 16.2916 3.31143 16.7061L15.967 29.3616ZM28.6225 15.2055L15.967 2.55L15.928 2.58893C13.3486 5.19994 13.3612 9.40374 15.9564 11.9992L24.6623 20.6662L28.6225 16.7061C29.0365 16.2916 29.0365 15.6201 28.6225 15.2055Z" fill="url(#paint0_linear)"/>
<path d="M15.967 11.9921C13.3718 9.39666 13.3592 5.19286 15.9387 2.58185L6.91062 11.6063L11.6317 16.3274L15.967 11.9921Z" fill="url(#paint1_linear)"/>
<path d="M20.2952 15.5913L15.967 19.9195C17.2196 21.1714 17.9233 22.8697 17.9233 24.6406C17.9233 26.4115 17.2196 28.1098 15.967 29.3616L25.0162 20.3123L20.2952 15.5913Z" fill="url(#paint2_linear)"/>
<defs>
<linearGradient id="paint0_linear" x1="15.967" y1="2.55" x2="15.967" y2="29.3616" gradientUnits="userSpaceOnUse">
<stop offset="0.541667" stop-color="#42526E"/>
<stop offset="0.760417" stop-color="#42526E" stop-opacity="0.546875"/>
<stop offset="1" stop-color="#42526E" stop-opacity="0"/>
</linearGradient>
<linearGradient id="paint1_linear" x1="11.4388" y1="2.58185" x2="11.4388" y2="16.3274" gradientUnits="userSpaceOnUse">
<stop offset="0.541667" stop-color="#42526E"/>
<stop offset="0.760417" stop-color="#42526E" stop-opacity="0.546875"/>
<stop offset="1" stop-color="#42526E" stop-opacity="0"/>
</linearGradient>
<linearGradient id="paint2_linear" x1="20.4916" y1="15.5913" x2="20.4916" y2="29.3616" gradientUnits="userSpaceOnUse">
<stop offset="0.541667" stop-color="#42526E"/>
<stop offset="0.760417" stop-color="#42526E" stop-opacity="0.546875"/>
<stop offset="1" stop-color="#42526E" stop-opacity="0"/>
</linearGradient>
</defs>
</svg>
