<svg width="32" height="32" viewBox="0 0 32 32" fill="none" xmlns="http://www.w3.org/2000/svg">
<path d="M4.78581 5C4.55424 4.99702 4.3332 5.09658 4.18199 5.27199C4.03077 5.4474 3.96486 5.68069 4.00194 5.90929L7.32946 26.1096C7.37036 26.3554 7.49666 26.5788 7.68612 26.7406C7.87681 26.9055 8.11993 26.9972 8.37201 26.9993L14.5489 19.5996H13.6827L12.3227 12.3958H27.3887L28.4469 5.91713C28.4862 5.68936 28.423 5.45585 28.2741 5.27903C28.1252 5.10221 27.9059 5.00011 27.6748 5H4.78581Z" fill="white"/>
<path d="M27.3887 12.3958H20.0321L18.7975 19.5996H13.7023L7.68613 26.7445C7.87681 26.9094 8.11993 27.0011 8.37201 27.0032H24.3394C24.7278 27.0082 25.0612 26.7281 25.1233 26.3448L27.3887 12.3958Z" fill="url(#paint0_linear)"/>
<defs>
<linearGradient id="paint0_linear" x1="27.3887" y1="16.6656" x2="19.3396" y2="25.7638" gradientUnits="userSpaceOnUse">
<stop stop-color="#E5E5E5"/>
<stop offset="1" stop-color="#0747A6"/>
</linearGradient>
</defs>
</svg>
