<svg width="20" height="20" viewBox="0 0 20 20" fill="none" xmlns="http://www.w3.org/2000/svg">
<path d="M10 20C15.5228 20 20 15.5228 20 10C20 4.47715 15.5228 0 10 0C4.47715 0 0 4.47715 0 10C0 15.5228 4.47715 20 10 20Z" fill="white"/>
<path d="M10 17C10.5523 17 11 16.5523 11 16C11 15.4477 10.5523 15 10 15C9.44772 15 9 15.4477 9 16C9 16.5523 9.44772 17 10 17Z" fill="#0747A6" fill-opacity="0.99"/>
<path fill-rule="evenodd" clip-rule="evenodd" d="M13.89 7.04999C13.7181 6.3338 13.3505 5.67945 12.8284 5.15997C12.3063 4.64048 11.6501 4.27628 10.933 4.10799C8.321 3.51399 6.017 5.44599 6 7.94999L6.005 8.09699C6.02689 8.34283 6.13964 8.57169 6.32123 8.73885C6.50281 8.90601 6.74019 8.99948 6.987 9.00099C7.539 9.00099 7.987 8.55399 7.989 8.00299C8.00043 7.47937 8.21641 6.98104 8.59068 6.61467C8.96495 6.2483 9.46778 6.04301 9.99152 6.04275C10.5153 6.04248 11.0183 6.24727 11.3929 6.61327C11.7676 6.97927 11.984 7.47739 11.996 8.00099C11.996 9.10299 11.098 10.001 9.993 10.001H10C9.73702 10.001 9.48462 10.1045 9.29745 10.2893C9.11028 10.474 9.00342 10.725 9 10.988V13.002C9 13.2677 9.10557 13.5226 9.29348 13.7105C9.48139 13.8984 9.73625 14.004 10.002 14.004C10.2677 14.004 10.5226 13.8984 10.7105 13.7105C10.8984 13.5226 11.004 13.2677 11.004 13.002V12.22C11.004 12.003 11.149 11.821 11.354 11.748C12.2824 11.4165 13.0552 10.7531 13.5235 9.88562C13.9918 9.01814 14.1223 8.00802 13.89 7.04999" fill="#0A49A7"/>
</svg>
